# xmcd
#
# Track frame offsets: 
#        150
#        23262
#        39222
#        68480
#        91450
#        116045
#
# Disc length: 1886 seconds
#
# Revision: 6
# Processed by: cddbd v1.5.2PL0 Copyright (c) Steve Scherf et al.
# Submitted via: ExactAudioCopy v1.3
#
DISCID=3a075c06
DTITLE=Dir en grey - MISSA
DYEAR=1997
DGENRE=visual kei
TTITLE0=霧と繭
TTITLE1=「S」
TTITLE2=Erode
TTITLE3=蒼い月
TTITLE4=GARDEN
TTITLE5=秒「」深
EXTD=YEAR: 1999
EXTT0=
EXTT1=
EXTT2=
EXTT3=
EXTT4=
EXTT5=
PLAYORDER=
